<svg xmlns="http://www.w3.org/2000/svg" viewBox="0 0 1032.31 1249.6"><g id="Layer_2" data-name="Layer 2"><g id="Layer_1-2" data-name="Layer 1"><g id="Design"><path d="M350,1104.53A45.48,45.48,0,1,0,395.45,1150,45.52,45.52,0,0,0,350,1104.53Zm0,81A35.48,35.48,0,1,1,385.45,1150,35.52,35.52,0,0,1,350,1185.48Z"/><path d="M292.24,106.57H407.72a10,10,0,0,0,0-20H292.24a10,10,0,0,0,0,20Z"/><path d="M1012.31,532h20V371.17H700V86.79A86.88,86.88,0,0,0,613.17,0H86.79A86.88,86.88,0,0,0,0,86.79v1076a86.88,86.88,0,0,0,86.79,86.79H613.17A86.88,86.88,0,0,0,700,1162.81V875.17h332.35V708h-20a88,88,0,0,1,0-176ZM329.16,265.17v716h40v-106H659.52v199.57H40.44V174.86H659.52V371.17H369.16v-106ZM86.79,40H613.17A46.84,46.84,0,0,1,660,86.79v68.07H40V86.79A46.84,46.84,0,0,1,86.79,40ZM613.17,1209.6H86.79A46.84,46.84,0,0,1,40,1162.81v-68.07H660v68.07A46.84,46.84,0,0,1,613.17,1209.6ZM992.31,746.44v88.73H370v-424H992.31v82.37c-61.12,9.63-108,62.67-108,126.45S931.19,736.81,992.31,746.44Z"/><rect x="806.01" y="439.4" width="20" height="66.01"/><rect x="806.01" y="539.9" width="20" height="66.01"/><rect x="806.01" y="640.27" width="20" height="66.01"/><rect x="806.01" y="740.94" width="20" height="66.01"/></g></g></g></svg>